
<global>
ampeg_release=1.50
</global>

<group>
group_label=RR1
seq_length=4
seq_position=1

<region>
hikey=a3
hivel=127
lokey=g#3
lovel=43
offset=9649
pitch_keycenter=a3
sample=Violin2Solo_col_legno_MF_A3_RR1.opus
</region>

<region>
hikey=a4
hivel=127
lokey=g#4
lovel=43
pitch_keycenter=a4
sample=Violin2Solo_col_legno_MF_A4_RR1.opus
</region>

<region>
hikey=a5
hivel=127
lokey=g#5
lovel=43
offset=10529
pitch_keycenter=a5
sample=Violin2Solo_col_legno_MF_A5_RR1.opus
</region>

<region>
hikey=a6
hivel=127
lokey=g#6
lovel=43
offset=10573
pitch_keycenter=a6
sample=Violin2Solo_col_legno_MF_A6_RR1.opus
</region>

<region>
hikey=b3
hivel=127
lokey=a#3
lovel=43
offset=4187
pitch_keycenter=b3
sample=Violin2Solo_col_legno_MF_B3_RR1.opus
</region>

<region>
hikey=b4
hivel=127
lokey=a#4
lovel=43
offset=2723
pitch_keycenter=b4
sample=Violin2Solo_col_legno_MF_B4_RR1.opus
</region>

<region>
hikey=b5
hivel=127
lokey=a#5
lovel=43
pitch_keycenter=b5
sample=Violin2Solo_col_legno_MF_B5_RR1.opus
</region>

<region>
hikey=E7
hivel=127
lokey=a#6
lovel=43
pitch_keycenter=B6
sample=Violin2Solo_col_legno_MF_B6_RR1.opus
</region>

<region>
hikey=c#4
hivel=127
lokey=c4
lovel=43
pitch_keycenter=c#4
sample=Violin2Solo_col_legno_MF_C#4_RR1.opus
</region>

<region>
hikey=c#5
hivel=127
lokey=c5
lovel=43
offset=10931
pitch_keycenter=c#5
sample=Violin2Solo_col_legno_MF_C#5_RR1.opus
</region>

<region>
hikey=c#6
hivel=127
lokey=c6
lovel=43
pitch_keycenter=c#6
sample=Violin2Solo_col_legno_MF_C#6_RR1.opus
</region>

<region>
hikey=d#4
hivel=127
lokey=d4
lovel=43
pitch_keycenter=d#4
sample=Violin2Solo_col_legno_MF_D#4_RR1.opus
</region>

<region>
hikey=d#5
hivel=127
lokey=d5
lovel=43
pitch_keycenter=d#5
sample=Violin2Solo_col_legno_MF_D#5_RR1.opus
</region>

<region>
hikey=d#6
hivel=127
lokey=d6
lovel=43
offset=5524
pitch_keycenter=d#6
sample=Violin2Solo_col_legno_MF_D#6_RR1.opus
</region>

<region>
hikey=f4
hivel=127
lokey=e4
lovel=43
offset=905
pitch_keycenter=f4
sample=Violin2Solo_col_legno_MF_F4_RR1.opus
</region>

<region>
hikey=f5
hivel=127
lokey=e5
lovel=43
offset=12719
pitch_keycenter=f5
sample=Violin2Solo_col_legno_MF_F5_RR1.opus
</region>

<region>
hikey=f6
hivel=127
lokey=e6
lovel=43
offset=12573
pitch_keycenter=f6
sample=Violin2Solo_col_legno_MF_F6_RR1.opus
</region>

<region>
hivel=127
key=g3
lovel=43
offset=5927
sample=Violin2Solo_col_legno_MF_G3_RR1.opus
</region>

<region>
hikey=g4
hivel=127
lokey=f#4
lovel=43
offset=16494
pitch_keycenter=g4
sample=Violin2Solo_col_legno_MF_G4_RR1.opus
</region>

<region>
hikey=g5
hivel=127
lokey=f#5
lovel=43
offset=6939
pitch_keycenter=g5
sample=Violin2Solo_col_legno_MF_G5_RR1.opus
</region>

<region>
hikey=g6
hivel=127
lokey=f#6
lovel=43
offset=986
pitch_keycenter=g6
sample=Violin2Solo_col_legno_MF_G6_RR1.opus
</region>

<region>
hikey=a3
hivel=42
lokey=g#3
lovel=0
offset=15534
pitch_keycenter=a3
sample=Violin2Solo_col_legno_PP_A3_RR1.opus
</region>

<region>
hikey=a4
hivel=42
lokey=g#4
lovel=0
offset=16843
pitch_keycenter=a4
sample=Violin2Solo_col_legno_PP_A4_RR1.opus
</region>

<region>
hikey=a5
hivel=42
lokey=g#5
lovel=0
offset=16194
pitch_keycenter=a5
sample=Violin2Solo_col_legno_PP_A5_RR1.opus
</region>

<region>
hikey=a6
hivel=42
lokey=g#6
lovel=0
offset=2064
pitch_keycenter=a6
sample=Violin2Solo_col_legno_PP_A6_RR1.opus
</region>

<region>
hikey=b3
hivel=42
lokey=a#3
lovel=0
pitch_keycenter=b3
sample=Violin2Solo_col_legno_PP_B3_RR1.opus
</region>

<region>
hikey=b4
hivel=42
lokey=a#4
lovel=0
offset=15815
pitch_keycenter=b4
sample=Violin2Solo_col_legno_PP_B4_RR1.opus
</region>

<region>
hikey=b5
hivel=42
lokey=a#5
lovel=0
offset=9763
pitch_keycenter=b5
sample=Violin2Solo_col_legno_PP_B5_RR1.opus
</region>

<region>
hikey=E7
hivel=42
lokey=a#6
lovel=0
offset=12994
pitch_keycenter=B6
sample=Violin2Solo_col_legno_PP_B6_RR1.opus
</region>

<region>
hikey=c#4
hivel=42
lokey=c4
lovel=0
pitch_keycenter=c#4
sample=Violin2Solo_col_legno_PP_C#4_RR1.opus
</region>

<region>
hikey=c#5
hivel=42
lokey=c5
lovel=0
offset=13427
pitch_keycenter=c#5
sample=Violin2Solo_col_legno_PP_C#5_RR1.opus
</region>

<region>
hikey=c#6
hivel=42
lokey=c6
lovel=0
offset=9545
pitch_keycenter=c#6
sample=Violin2Solo_col_legno_PP_C#6_RR1.opus
</region>

<region>
hikey=d#4
hivel=42
lokey=d4
lovel=0
offset=15975
pitch_keycenter=d#4
sample=Violin2Solo_col_legno_PP_D#4_RR1.opus
</region>

<region>
hikey=d#5
hivel=42
lokey=d5
lovel=0
offset=14732
pitch_keycenter=d#5
sample=Violin2Solo_col_legno_PP_D#5_RR1.opus
</region>

<region>
hikey=d#6
hivel=42
lokey=d6
lovel=0
offset=3415
pitch_keycenter=d#6
sample=Violin2Solo_col_legno_PP_D#6_RR1.opus
</region>

<region>
hikey=f4
hivel=42
lokey=e4
lovel=0
offset=12639
pitch_keycenter=f4
sample=Violin2Solo_col_legno_PP_F4_RR1.opus
</region>

<region>
hikey=f5
hivel=42
lokey=e5
lovel=0
offset=16006
pitch_keycenter=f5
sample=Violin2Solo_col_legno_PP_F5_RR1.opus
</region>

<region>
hikey=f6
hivel=42
lokey=e6
lovel=0
offset=27129
pitch_keycenter=f6
sample=Violin2Solo_col_legno_PP_F6_RR1.opus
</region>

<region>
hivel=42
key=g3
lovel=0
sample=Violin2Solo_col_legno_PP_G3_RR1.opus
</region>

<region>
hikey=g4
hivel=42
lokey=f#4
lovel=0
pitch_keycenter=g4
sample=Violin2Solo_col_legno_PP_G4_RR1.opus
</region>

<region>
hikey=g5
hivel=42
lokey=f#5
lovel=0
offset=16934
pitch_keycenter=g5
sample=Violin2Solo_col_legno_PP_G5_RR1.opus
</region>

<region>
hikey=g6
hivel=42
lokey=f#6
lovel=0
offset=17545
pitch_keycenter=g6
sample=Violin2Solo_col_legno_PP_G6_RR1.opus
</region>
</group>

<group>
group_label=RR2
seq_length=4
seq_position=2

<region>
hikey=a3
hivel=127
lokey=g#3
lovel=43
pitch_keycenter=a3
sample=Violin2Solo_col_legno_MF_A3_RR2.opus
</region>

<region>
hikey=a4
hivel=127
lokey=g#4
lovel=43
offset=10117
pitch_keycenter=a4
sample=Violin2Solo_col_legno_MF_A4_RR2.opus
</region>

<region>
hikey=a5
hivel=127
lokey=g#5
lovel=43
offset=10619
pitch_keycenter=a5
sample=Violin2Solo_col_legno_MF_A5_RR2.opus
</region>

<region>
hikey=a6
hivel=127
lokey=g#6
lovel=43
offset=11020
pitch_keycenter=a6
sample=Violin2Solo_col_legno_MF_A6_RR2.opus
</region>

<region>
hikey=b3
hivel=127
lokey=a#3
lovel=43
pitch_keycenter=b3
sample=Violin2Solo_col_legno_MF_B3_RR2.opus
</region>

<region>
hikey=b4
hivel=127
lokey=a#4
lovel=43
offset=7188
pitch_keycenter=b4
sample=Violin2Solo_col_legno_MF_B4_RR2.opus
</region>

<region>
hikey=b5
hivel=127
lokey=a#5
lovel=43
offset=6409
pitch_keycenter=b5
sample=Violin2Solo_col_legno_MF_B5_RR2.opus
</region>

<region>
hikey=E7
hivel=127
lokey=a#6
lovel=43
offset=9366
pitch_keycenter=B6
sample=Violin2Solo_col_legno_MF_B6_RR2.opus
</region>

<region>
hikey=c#4
hivel=127
lokey=c4
lovel=43
pitch_keycenter=c#4
sample=Violin2Solo_col_legno_MF_C#4_RR2.opus
</region>

<region>
hikey=c#5
hivel=127
lokey=c5
lovel=43
offset=12925
pitch_keycenter=c#5
sample=Violin2Solo_col_legno_MF_C#5_RR2.opus
</region>

<region>
hikey=c#6
hivel=127
lokey=c6
lovel=43
pitch_keycenter=c#6
sample=Violin2Solo_col_legno_MF_C#6_RR2.opus
</region>

<region>
hikey=d#4
hivel=127
lokey=d4
lovel=43
pitch_keycenter=d#4
sample=Violin2Solo_col_legno_MF_D#4_RR2.opus
</region>

<region>
hikey=d#5
hivel=127
lokey=d5
lovel=43
offset=8452
pitch_keycenter=d#5
sample=Violin2Solo_col_legno_MF_D#5_RR2.opus
</region>

<region>
hikey=d#6
hivel=127
lokey=d6
lovel=43
offset=10625
pitch_keycenter=d#6
sample=Violin2Solo_col_legno_MF_D#6_RR2.opus
</region>

<region>
hikey=f4
hivel=127
lokey=e4
lovel=43
pitch_keycenter=f4
sample=Violin2Solo_col_legno_MF_F4_RR2.opus
</region>

<region>
hikey=f5
hivel=127
lokey=e5
lovel=43
pitch_keycenter=f5
sample=Violin2Solo_col_legno_MF_F5_RR2.opus
</region>

<region>
hikey=f6
hivel=127
lokey=e6
lovel=43
offset=13670
pitch_keycenter=f6
sample=Violin2Solo_col_legno_MF_F6_RR2.opus
</region>

<region>
hivel=127
key=g3
lovel=43
offset=15135
sample=Violin2Solo_col_legno_MF_G3_RR2.opus
</region>

<region>
hikey=g4
hivel=127
lokey=f#4
lovel=43
offset=13426
pitch_keycenter=g4
sample=Violin2Solo_col_legno_MF_G4_RR2.opus
</region>

<region>
hikey=g5
hivel=127
lokey=f#5
lovel=43
offset=210
pitch_keycenter=g5
sample=Violin2Solo_col_legno_MF_G5_RR2.opus
</region>

<region>
hikey=g6
hivel=127
lokey=f#6
lovel=43
offset=11533
pitch_keycenter=g6
sample=Violin2Solo_col_legno_MF_G6_RR2.opus
</region>

<region>
hikey=a3
hivel=42
lokey=g#3
lovel=0
offset=11522
pitch_keycenter=a3
sample=Violin2Solo_col_legno_PP_A3_RR2.opus
</region>

<region>
hikey=a4
hivel=42
lokey=g#4
lovel=0
pitch_keycenter=a4
sample=Violin2Solo_col_legno_PP_A4_RR2.opus
</region>

<region>
hikey=a5
hivel=42
lokey=g#5
lovel=0
offset=8961
pitch_keycenter=a5
sample=Violin2Solo_col_legno_PP_A5_RR2.opus
</region>

<region>
hikey=a6
hivel=42
lokey=g#6
lovel=0
offset=9785
pitch_keycenter=a6
sample=Violin2Solo_col_legno_PP_A6_RR2.opus
</region>

<region>
hikey=b3
hivel=42
lokey=a#3
lovel=0
pitch_keycenter=b3
sample=Violin2Solo_col_legno_PP_B3_RR2.opus
</region>

<region>
hikey=b4
hivel=42
lokey=a#4
lovel=0
offset=13034
pitch_keycenter=b4
sample=Violin2Solo_col_legno_PP_B4_RR2.opus
</region>

<region>
hikey=b5
hivel=42
lokey=a#5
lovel=0
offset=25963
pitch_keycenter=b5
sample=Violin2Solo_col_legno_PP_B5_RR2.opus
</region>

<region>
hikey=E7
hivel=42
lokey=a#6
lovel=0
offset=9497
pitch_keycenter=B6
sample=Violin2Solo_col_legno_PP_B6_RR2.opus
</region>

<region>
hikey=c#4
hivel=42
lokey=c4
lovel=0
pitch_keycenter=c#4
sample=Violin2Solo_col_legno_PP_C#4_RR2.opus
</region>

<region>
hikey=c#5
hivel=42
lokey=c5
lovel=0
offset=12178
pitch_keycenter=c#5
sample=Violin2Solo_col_legno_PP_C#5_RR2.opus
</region>

<region>
hikey=c#6
hivel=42
lokey=c6
lovel=0
offset=8230
pitch_keycenter=c#6
sample=Violin2Solo_col_legno_PP_C#6_RR2.opus
</region>

<region>
hikey=d#4
hivel=42
lokey=d4
lovel=0
offset=4740
pitch_keycenter=d#4
sample=Violin2Solo_col_legno_PP_D#4_RR2.opus
</region>

<region>
hikey=d#5
hivel=42
lokey=d5
lovel=0
pitch_keycenter=d#5
sample=Violin2Solo_col_legno_PP_D#5_RR2.opus
</region>

<region>
hikey=d#6
hivel=42
lokey=d6
lovel=0
offset=3998
pitch_keycenter=d#6
sample=Violin2Solo_col_legno_PP_D#6_RR2.opus
</region>

<region>
hikey=f4
hivel=42
lokey=e4
lovel=0
offset=12659
pitch_keycenter=f4
sample=Violin2Solo_col_legno_PP_F4_RR2.opus
</region>

<region>
hikey=f5
hivel=42
lokey=e5
lovel=0
offset=13060
pitch_keycenter=f5
sample=Violin2Solo_col_legno_PP_F5_RR2.opus
</region>

<region>
hikey=f6
hivel=42
lokey=e6
lovel=0
offset=11917
pitch_keycenter=f6
sample=Violin2Solo_col_legno_PP_F6_RR2.opus
</region>

<region>
hivel=42
key=g3
lovel=0
offset=13373
sample=Violin2Solo_col_legno_PP_G3_RR2.opus
</region>

<region>
hikey=g4
hivel=42
lokey=f#4
lovel=0
offset=6501
pitch_keycenter=g4
sample=Violin2Solo_col_legno_PP_G4_RR2.opus
</region>

<region>
hikey=g5
hivel=42
lokey=f#5
lovel=0
pitch_keycenter=g5
sample=Violin2Solo_col_legno_PP_G5_RR2.opus
</region>

<region>
hikey=g6
hivel=42
lokey=f#6
lovel=0
offset=11994
pitch_keycenter=g6
sample=Violin2Solo_col_legno_PP_G6_RR2.opus
</region>
</group>

<group>
group_label=RR3
seq_length=4
seq_position=3

<region>
hikey=a3
hivel=127
lokey=g#3
lovel=43
offset=14097
pitch_keycenter=a3
sample=Violin2Solo_col_legno_MF_A3_RR3.opus
</region>

<region>
hikey=a4
hivel=127
lokey=g#4
lovel=43
offset=8858
pitch_keycenter=a4
sample=Violin2Solo_col_legno_MF_A4_RR3.opus
</region>

<region>
hikey=a5
hivel=127
lokey=g#5
lovel=43
offset=4942
pitch_keycenter=a5
sample=Violin2Solo_col_legno_MF_A5_RR3.opus
</region>

<region>
hikey=a6
hivel=127
lokey=g#6
lovel=43
offset=10536
pitch_keycenter=a6
sample=Violin2Solo_col_legno_MF_A6_RR3.opus
</region>

<region>
hikey=b3
hivel=127
lokey=a#3
lovel=43
offset=7081
pitch_keycenter=b3
sample=Violin2Solo_col_legno_MF_B3_RR3.opus
</region>

<region>
hikey=b4
hivel=127
lokey=a#4
lovel=43
offset=9379
pitch_keycenter=b4
sample=Violin2Solo_col_legno_MF_B4_RR3.opus
</region>

<region>
hikey=b5
hivel=127
lokey=a#5
lovel=43
offset=11666
pitch_keycenter=b5
sample=Violin2Solo_col_legno_MF_B5_RR3.opus
</region>

<region>
hikey=E7
hivel=127
lokey=a#6
lovel=43
pitch_keycenter=B6
sample=Violin2Solo_col_legno_MF_B6_RR3.opus
</region>

<region>
hikey=c#4
hivel=127
lokey=c4
lovel=43
pitch_keycenter=c#4
sample=Violin2Solo_col_legno_MF_C#4_RR3.opus
</region>

<region>
hikey=c#5
hivel=127
lokey=c5
lovel=43
offset=11009
pitch_keycenter=c#5
sample=Violin2Solo_col_legno_MF_C#5_RR3.opus
</region>

<region>
hikey=c#6
hivel=127
lokey=c6
lovel=43
pitch_keycenter=c#6
sample=Violin2Solo_col_legno_MF_C#6_RR3.opus
</region>

<region>
hikey=d#4
hivel=127
lokey=d4
lovel=43
pitch_keycenter=d#4
sample=Violin2Solo_col_legno_MF_D#4_RR3.opus
</region>

<region>
hikey=d#5
hivel=127
lokey=d5
lovel=43
pitch_keycenter=d#5
sample=Violin2Solo_col_legno_MF_D#5_RR3.opus
</region>

<region>
hikey=d#6
hivel=127
lokey=d6
lovel=43
offset=7318
pitch_keycenter=d#6
sample=Violin2Solo_col_legno_MF_D#6_RR3.opus
</region>

<region>
hikey=f4
hivel=127
lokey=e4
lovel=43
offset=3218
pitch_keycenter=f4
sample=Violin2Solo_col_legno_MF_F4_RR3.opus
</region>

<region>
hikey=f5
hivel=127
lokey=e5
lovel=43
pitch_keycenter=f5
sample=Violin2Solo_col_legno_MF_F5_RR3.opus
</region>

<region>
hikey=f6
hivel=127
lokey=e6
lovel=43
offset=10124
pitch_keycenter=f6
sample=Violin2Solo_col_legno_MF_F6_RR3.opus
</region>

<region>
hivel=127
key=g3
lovel=43
offset=9374
sample=Violin2Solo_col_legno_MF_G3_RR3.opus
</region>

<region>
hikey=g4
hivel=127
lokey=f#4
lovel=43
pitch_keycenter=g4
sample=Violin2Solo_col_legno_MF_G4_RR3.opus
</region>

<region>
hikey=g5
hivel=127
lokey=f#5
lovel=43
offset=7852
pitch_keycenter=g5
sample=Violin2Solo_col_legno_MF_G5_RR3.opus
</region>

<region>
hikey=g6
hivel=127
lokey=f#6
lovel=43
offset=11387
pitch_keycenter=g6
sample=Violin2Solo_col_legno_MF_G6_RR3.opus
</region>

<region>
hikey=a3
hivel=42
lokey=g#3
lovel=0
pitch_keycenter=a3
sample=Violin2Solo_col_legno_PP_A3_RR3.opus
</region>

<region>
hikey=a4
hivel=42
lokey=g#4
lovel=0
offset=10218
pitch_keycenter=a4
sample=Violin2Solo_col_legno_PP_A4_RR3.opus
</region>

<region>
hikey=a5
hivel=42
lokey=g#5
lovel=0
offset=11412
pitch_keycenter=a5
sample=Violin2Solo_col_legno_PP_A5_RR3.opus
</region>

<region>
hikey=a6
hivel=42
lokey=g#6
lovel=0
offset=12792
pitch_keycenter=a6
sample=Violin2Solo_col_legno_PP_A6_RR3.opus
</region>

<region>
hikey=b3
hivel=42
lokey=a#3
lovel=0
pitch_keycenter=b3
sample=Violin2Solo_col_legno_PP_B3_RR3.opus
</region>

<region>
hikey=b4
hivel=42
lokey=a#4
lovel=0
offset=10745
pitch_keycenter=b4
sample=Violin2Solo_col_legno_PP_B4_RR3.opus
</region>

<region>
hikey=b5
hivel=42
lokey=a#5
lovel=0
offset=11281
pitch_keycenter=b5
sample=Violin2Solo_col_legno_PP_B5_RR3.opus
</region>

<region>
hikey=E7
hivel=42
lokey=a#6
lovel=0
offset=11212
pitch_keycenter=B6
sample=Violin2Solo_col_legno_PP_B6_RR3.opus
</region>

<region>
hikey=c#4
hivel=42
lokey=c4
lovel=0
pitch_keycenter=c#4
sample=Violin2Solo_col_legno_PP_C#4_RR3.opus
</region>

<region>
hikey=c#5
hivel=42
lokey=c5
lovel=0
pitch_keycenter=c#5
sample=Violin2Solo_col_legno_PP_C#5_RR3.opus
</region>

<region>
hikey=c#6
hivel=42
lokey=c6
lovel=0
offset=11018
pitch_keycenter=c#6
sample=Violin2Solo_col_legno_PP_C#6_RR3.opus
</region>

<region>
hikey=d#4
hivel=42
lokey=d4
lovel=0
offset=16869
pitch_keycenter=d#4
sample=Violin2Solo_col_legno_PP_D#4_RR3.opus
</region>

<region>
hikey=d#5
hivel=42
lokey=d5
lovel=0
offset=16600
pitch_keycenter=d#5
sample=Violin2Solo_col_legno_PP_D#5_RR3.opus
</region>

<region>
hikey=d#6
hivel=42
lokey=d6
lovel=0
offset=12752
pitch_keycenter=d#6
sample=Violin2Solo_col_legno_PP_D#6_RR3.opus
</region>

<region>
hikey=f4
hivel=42
lokey=e4
lovel=0
offset=10486
pitch_keycenter=f4
sample=Violin2Solo_col_legno_PP_F4_RR3.opus
</region>

<region>
hikey=f5
hivel=42
lokey=e5
lovel=0
offset=2444
pitch_keycenter=f5
sample=Violin2Solo_col_legno_PP_F5_RR3.opus
</region>

<region>
hikey=f6
hivel=42
lokey=e6
lovel=0
offset=12163
pitch_keycenter=f6
sample=Violin2Solo_col_legno_PP_F6_RR3.opus
</region>

<region>
hivel=42
key=g3
lovel=0
sample=Violin2Solo_col_legno_PP_G3_RR3.opus
</region>

<region>
hikey=g4
hivel=42
lokey=f#4
lovel=0
offset=16627
pitch_keycenter=g4
sample=Violin2Solo_col_legno_PP_G4_RR3.opus
</region>

<region>
hikey=g5
hivel=42
lokey=f#5
lovel=0
offset=11260
pitch_keycenter=g5
sample=Violin2Solo_col_legno_PP_G5_RR3.opus
</region>

<region>
hikey=g6
hivel=42
lokey=f#6
lovel=0
offset=14646
pitch_keycenter=g6
sample=Violin2Solo_col_legno_PP_G6_RR3.opus
</region>
</group>

<group>
group_label=RR4
seq_length=4
seq_position=4

<region>
hikey=a3
hivel=127
lokey=g#3
lovel=43
offset=23063
pitch_keycenter=a3
sample=Violin2Solo_col_legno_MF_A3_RR4.opus
</region>

<region>
hikey=a4
hivel=127
lokey=g#4
lovel=43
offset=7344
pitch_keycenter=a4
sample=Violin2Solo_col_legno_MF_A4_RR4.opus
</region>

<region>
hikey=a5
hivel=127
lokey=g#5
lovel=43
offset=2818
pitch_keycenter=a5
sample=Violin2Solo_col_legno_MF_A5_RR4.opus
</region>

<region>
hikey=a6
hivel=127
lokey=g#6
lovel=43
pitch_keycenter=a6
sample=Violin2Solo_col_legno_MF_A6_RR4.opus
</region>

<region>
hikey=b3
hivel=127
lokey=a#3
lovel=43
offset=13839
pitch_keycenter=b3
sample=Violin2Solo_col_legno_MF_B3_RR4.opus
</region>

<region>
hikey=b4
hivel=127
lokey=a#4
lovel=43
offset=9167
pitch_keycenter=b4
sample=Violin2Solo_col_legno_MF_B4_RR4.opus
</region>

<region>
hikey=b5
hivel=127
lokey=a#5
lovel=43
offset=13089
pitch_keycenter=b5
sample=Violin2Solo_col_legno_MF_B5_RR4.opus
</region>

<region>
hikey=E7
hivel=127
lokey=a#6
lovel=43
pitch_keycenter=B6
sample=Violin2Solo_col_legno_MF_B6_RR4.opus
</region>

<region>
hikey=c#4
hivel=127
lokey=c4
lovel=43
pitch_keycenter=c#4
sample=Violin2Solo_col_legno_MF_C#4_RR4.opus
</region>

<region>
hikey=c#5
hivel=127
lokey=c5
lovel=43
offset=12033
pitch_keycenter=c#5
sample=Violin2Solo_col_legno_MF_C#5_RR4.opus
</region>

<region>
hikey=c#6
hivel=127
lokey=c6
lovel=43
pitch_keycenter=c#6
sample=Violin2Solo_col_legno_MF_C#6_RR4.opus
</region>

<region>
hikey=d#4
hivel=127
lokey=d4
lovel=43
pitch_keycenter=d#4
sample=Violin2Solo_col_legno_MF_D#4_RR4.opus
</region>

<region>
hikey=d#5
hivel=127
lokey=d5
lovel=43
offset=11828
pitch_keycenter=d#5
sample=Violin2Solo_col_legno_MF_D#5_RR4.opus
</region>

<region>
hikey=d#6
hivel=127
lokey=d6
lovel=43
offset=701
pitch_keycenter=d#6
sample=Violin2Solo_col_legno_MF_D#6_RR4.opus
</region>

<region>
hikey=f4
hivel=127
lokey=e4
lovel=43
offset=4019
pitch_keycenter=f4
sample=Violin2Solo_col_legno_MF_F4_RR4.opus
</region>

<region>
hikey=f5
hivel=127
lokey=e5
lovel=43
pitch_keycenter=f5
sample=Violin2Solo_col_legno_MF_F5_RR4.opus
</region>

<region>
hikey=f6
hivel=127
lokey=e6
lovel=43
offset=14107
pitch_keycenter=f6
sample=Violin2Solo_col_legno_MF_F6_RR4.opus
</region>

<region>
hivel=127
key=g3
lovel=43
offset=6034
sample=Violin2Solo_col_legno_MF_G3_RR4.opus
</region>

<region>
hikey=g4
hivel=127
lokey=f#4
lovel=43
offset=4817
pitch_keycenter=g4
sample=Violin2Solo_col_legno_MF_G4_RR4.opus
</region>

<region>
hikey=g5
hivel=127
lokey=f#5
lovel=43
pitch_keycenter=g5
sample=Violin2Solo_col_legno_MF_G5_RR4.opus
</region>

<region>
hikey=g6
hivel=127
lokey=f#6
lovel=43
offset=11280
pitch_keycenter=g6
sample=Violin2Solo_col_legno_MF_G6_RR4.opus
</region>

<region>
hikey=a3
hivel=42
lokey=g#3
lovel=0
pitch_keycenter=a3
sample=Violin2Solo_col_legno_PP_A3_RR4.opus
</region>

<region>
hikey=a4
hivel=42
lokey=g#4
lovel=0
offset=7750
pitch_keycenter=a4
sample=Violin2Solo_col_legno_PP_A4_RR4.opus
</region>

<region>
hikey=a5
hivel=42
lokey=g#5
lovel=0
offset=10700
pitch_keycenter=a5
sample=Violin2Solo_col_legno_PP_A5_RR4.opus
</region>

<region>
hikey=a6
hivel=42
lokey=g#6
lovel=0
offset=11577
pitch_keycenter=a6
sample=Violin2Solo_col_legno_PP_A6_RR4.opus
</region>

<region>
hikey=b3
hivel=42
lokey=a#3
lovel=0
pitch_keycenter=b3
sample=Violin2Solo_col_legno_PP_B3_RR4.opus
</region>

<region>
hikey=b4
hivel=42
lokey=a#4
lovel=0
offset=11522
pitch_keycenter=b4
sample=Violin2Solo_col_legno_PP_B4_RR4.opus
</region>

<region>
hikey=b5
hivel=42
lokey=a#5
lovel=0
offset=188
pitch_keycenter=b5
sample=Violin2Solo_col_legno_PP_B5_RR4.opus
</region>

<region>
hikey=E7
hivel=42
lokey=a#6
lovel=0
offset=11521
pitch_keycenter=B6
sample=Violin2Solo_col_legno_PP_B6_RR4.opus
</region>

<region>
hikey=c#4
hivel=42
lokey=c4
lovel=0
pitch_keycenter=c#4
sample=Violin2Solo_col_legno_PP_C#4_RR4.opus
</region>

<region>
hikey=c#5
hivel=42
lokey=c5
lovel=0
offset=14982
pitch_keycenter=c#5
sample=Violin2Solo_col_legno_PP_C#5_RR4.opus
</region>

<region>
hikey=c#6
hivel=42
lokey=c6
lovel=0
offset=7175
pitch_keycenter=c#6
sample=Violin2Solo_col_legno_PP_C#6_RR4.opus
</region>

<region>
hikey=d#4
hivel=42
lokey=d4
lovel=0
offset=5960
pitch_keycenter=d#4
sample=Violin2Solo_col_legno_PP_D#4_RR4.opus
</region>

<region>
hikey=d#5
hivel=42
lokey=d5
lovel=0
offset=14253
pitch_keycenter=d#5
sample=Violin2Solo_col_legno_PP_D#5_RR4.opus
</region>

<region>
hikey=d#6
hivel=42
lokey=d6
lovel=0
pitch_keycenter=d#6
sample=Violin2Solo_col_legno_PP_D#6_RR4.opus
</region>

<region>
hikey=f4
hivel=42
lokey=e4
lovel=0
pitch_keycenter=f4
sample=Violin2Solo_col_legno_PP_F4_RR4.opus
</region>

<region>
hikey=f5
hivel=42
lokey=e5
lovel=0
offset=16223
pitch_keycenter=f5
sample=Violin2Solo_col_legno_PP_F5_RR4.opus
</region>

<region>
hikey=f6
hivel=42
lokey=e6
lovel=0
offset=12546
pitch_keycenter=f6
sample=Violin2Solo_col_legno_PP_F6_RR4.opus
</region>

<region>
hivel=42
key=g3
lovel=0
offset=17745
sample=Violin2Solo_col_legno_PP_G3_RR4.opus
</region>

<region>
hikey=g4
hivel=42
lokey=f#4
lovel=0
pitch_keycenter=g4
sample=Violin2Solo_col_legno_PP_G4_RR4.opus
</region>

<region>
hikey=g5
hivel=42
lokey=f#5
lovel=0
offset=13005
pitch_keycenter=g5
sample=Violin2Solo_col_legno_PP_G5_RR4.opus
</region>

<region>
hikey=g6
hivel=42
lokey=f#6
lovel=0
offset=11002
pitch_keycenter=g6
sample=Violin2Solo_col_legno_PP_G6_RR4.opus
</region>
</group>